<svg xmlns="http://www.w3.org/2000/svg" width="640" height="800" viewBox="0 0 640 800" role="img" aria-labelledby="title desc">
  <title id="title">Faizal Profile Avatar</title>
  <desc id="desc">Stylized portrait avatar for Faizal.</desc>
  <defs>
    <linearGradient id="bg" x1="0" y1="0" x2="1" y2="1">
      <stop offset="0%" stop-color="#4b0082"/>
      <stop offset="100%" stop-color="#2f0052"/>
    </linearGradient>
    <radialGradient id="glow" cx="35%" cy="18%" r="80%">
      <stop offset="0%" stop-color="#f6c343" stop-opacity="0.92"/>
      <stop offset="100%" stop-color="#f6c343" stop-opacity="0"/>
    </radialGradient>
  </defs>
  <rect width="640" height="800" rx="44" fill="url(#bg)"/>
  <circle cx="520" cy="120" r="170" fill="url(#glow)"/>
  <circle cx="140" cy="120" r="100" fill="#ffffff" fill-opacity="0.06"/>
  <circle cx="550" cy="680" r="130" fill="#ffffff" fill-opacity="0.06"/>
  <path d="M320 138c-82 0-148 66-148 148 0 49 24 93 61 121-31 14-62 42-86 82-29 48-43 110-43 191v18h432v-18c0-81-14-143-43-191-24-40-55-68-86-82 37-28 61-72 61-121 0-82-66-148-148-148z" fill="#f7f0ff" fill-opacity="0.94"/>
  <circle cx="320" cy="310" r="126" fill="#f0d2bd"/>
  <path d="M220 312c0-32 15-60 40-78 18-13 40-20 64-20s46 7 64 20c25 18 40 46 40 78v26c0 14-11 25-25 25h-158c-14 0-25-11-25-25v-26z" fill="#2c1f1b"/>
  <path d="M251 286c18-5 32-3 39 6 10 12 9 33 2 47-4 7-11 12-20 12-17 0-28-10-34-22-8-16-1-34 13-43z" fill="#2c1f1b"/>
  <path d="M389 286c-18-5-32-3-39 6-10 12-9 33-2 47 4 7 11 12 20 12 17 0 28-10 34-22 8-16 1-34-13-43z" fill="#2c1f1b"/>
  <path d="M273 400c14 18 31 28 47 28s33-10 47-28" fill="none" stroke="#b15d5d" stroke-width="10" stroke-linecap="round"/>
  <path d="M228 476c37-24 77-36 92-36s55 12 92 36c27 17 46 46 46 80v154H182V556c0-34 19-63 46-80z" fill="#ffffff" fill-opacity="0.88"/>
  <path d="M214 514h212" stroke="#4b0082" stroke-width="8" stroke-linecap="round" stroke-opacity="0.35"/>
  <path d="M232 562h176" stroke="#4b0082" stroke-width="8" stroke-linecap="round" stroke-opacity="0.18"/>
  <circle cx="154" cy="210" r="16" fill="#f6c343"/>
  <circle cx="492" cy="238" r="12" fill="#f6c343" fill-opacity="0.8"/>
  <text x="320" y="740" text-anchor="middle" font-family="Arial, Helvetica, sans-serif" font-size="44" font-weight="700" fill="#ffffff">FAIZAL</text>
</svg>
